<svg xmlns="http://www.w3.org/2000/svg" xmlns:xlink="http://www.w3.org/1999/xlink" width="100" zoomAndPan="magnify" viewBox="0 0 75 74.999997" height="100" preserveAspectRatio="xMidYMid meet" version="1.0"><defs><clipPath id="15ae3cfd72"><path d="M 20 17.042969 L 57.644531 17.042969 L 57.644531 55 L 20 55 Z M 20 17.042969 " clip-rule="nonzero"/></clipPath><clipPath id="cadfa75435"><path d="M 17.144531 51 L 25 51 L 25 58 L 17.144531 58 Z M 17.144531 51 " clip-rule="nonzero"/></clipPath></defs><path fill="#3792c6" d="M 37.5 3 C 18.496094 3 3 18.480469 3 37.5 C 3 56.519531 18.480469 72 37.5 72 C 56.519531 72 72 56.519531 72 37.5 C 72 18.480469 56.503906 3 37.5 3 Z M 37.5 3 " fill-opacity="1" fill-rule="nonzero"/><path fill="#ffffff" d="M 37.5 1.125 C 17.445312 1.125 1.125 17.460938 1.125 37.5 C 1.125 57.554688 17.445312 73.875 37.5 73.875 C 57.539062 73.875 73.875 57.554688 73.875 37.5 C 73.875 17.460938 57.539062 1.125 37.5 1.125 Z M 37.5 71.039062 C 19.003906 71.039062 3.960938 55.996094 3.960938 37.5 C 3.960938 19.003906 19.003906 3.960938 37.5 3.960938 C 55.996094 3.960938 71.039062 19.003906 71.039062 37.5 C 71.039062 55.996094 55.996094 71.039062 37.5 71.039062 Z M 37.5 71.039062 " fill-opacity="1" fill-rule="nonzero"/><path fill="#ffffff" d="M 37.5 75 C 16.828125 75 0 58.171875 0 37.5 C 0 16.828125 16.828125 0 37.5 0 C 58.171875 0 75 16.828125 75 37.5 C 75 58.171875 58.171875 75 37.5 75 Z M 37.5 2.25 C 18.058594 2.25 2.25 18.058594 2.25 37.5 C 2.25 56.941406 18.058594 72.75 37.5 72.75 C 56.941406 72.75 72.75 56.941406 72.75 37.5 C 72.75 18.058594 56.941406 2.25 37.5 2.25 Z M 37.5 2.25 " fill-opacity="1" fill-rule="nonzero"/><path fill="#f5fbff" d="M 20.578125 34.371094 L 20.578125 46.070312 C 25.140625 46.183594 28.820312 49.933594 28.820312 54.523438 L 40.519531 54.523438 C 40.519531 43.484375 31.59375 34.484375 20.578125 34.371094 " fill-opacity="1" fill-rule="nonzero"/><g clip-path="url(#15ae3cfd72)"><path fill="#f5fbff" d="M 46.144531 17.042969 L 46.144531 27.320312 C 42.867188 24.214844 39.109375 21.75 34.953125 19.992188 C 30.394531 18.0625 25.558594 17.070312 20.578125 17.042969 L 20.578125 28.742188 C 34.695312 28.859375 46.144531 40.382812 46.144531 54.523438 L 57.84375 54.523438 L 57.84375 17.042969 L 46.144531 17.042969 " fill-opacity="1" fill-rule="nonzero"/></g><g clip-path="url(#cadfa75435)"><path fill="#f5fbff" d="M 20.578125 51.097656 C 18.683594 51.097656 17.148438 52.632812 17.148438 54.523438 C 17.148438 56.417969 18.683594 57.953125 20.578125 57.953125 C 22.472656 57.953125 24.007812 56.417969 24.007812 54.523438 C 24.007812 52.632812 22.472656 51.097656 20.578125 51.097656 " fill-opacity="1" fill-rule="nonzero"/></g></svg>